PathFileType	4	(X/Y/Z)	..\data\2014014\dynamic\2014014_C5_04.trc
DataRate	CameraRate	NumFrames	NumMarkers	Units	OrigDataRate	OrigDataStartFrame	OrigNumFrames
100.000000	100.000000	4	52	mm	100.000000	58	157
Frame#	Time	L_IAS			L_IPS			R_IPS			R_IAS			L_FTC			L_FLE			L_FME			L_FAX			L_TTC			L_FAL			L_TAM			L_FCC			L_FM1			L_FM2			L_FM5			R_FTC			R_FLE			R_FME			R_FAX			R_TTC			R_FAL			R_TAM			R_FCC			R_FM1			R_FM2			R_FM5			CV7			TV10			SXS			SJN			L_SIA			L_SRS			L_SAA			L_SAE			L_HLE			L_HME			L_UOA			L_RSP			L_UHE			L_HM2			L_HM5			R_SIA			R_SRS			R_SAA			R_SAE			R_HLE			R_HME			R_UOA			R_RSP			R_UHE			R_HM2			R_HM5			
		X1	Y1	Z1	X2	Y2	Z2	X3	Y3	Z3	X4	Y4	Z4	X5	Y5	Z5	X6	Y6	Z6	X7	Y7	Z7	X8	Y8	Z8	X9	Y9	Z9	X10	Y10	Z10	X11	Y11	Z11	X12	Y12	Z12	X13	Y13	Z13	X14	Y14	Z14	X15	Y15	Z15	X16	Y16	Z16	X17	Y17	Z17	X18	Y18	Z18	X19	Y19	Z19	X20	Y20	Z20	X21	Y21	Z21	X22	Y22	Z22	X23	Y23	Z23	X24	Y24	Z24	X25	Y25	Z25	X26	Y26	Z26	X27	Y27	Z27	X28	Y28	Z28	X29	Y29	Z29	X30	Y30	Z30	X31	Y31	Z31	X32	Y32	Z32	X33	Y33	Z33	X34	Y34	Z34	X35	Y35	Z35	X36	Y36	Z36	X37	Y37	Z37	X38	Y38	Z38	X39	Y39	Z39	X40	Y40	Z40	X41	Y41	Z41	X42	Y42	Z42	X43	Y43	Z43	X44	Y44	Z44	X45	Y45	Z45	X46	Y46	Z46	X47	Y47	Z47	X48	Y48	Z48	X49	Y49	Z49	X50	Y50	Z50	X51	Y51	Z51	X52	Y52	Z52	

59	0.58	-443.9400329589845	964.321960449219	107.9915695190429	-648.9647216796876	988.5598754882815	194.8450469970703	-650.4207763671876	981.6770019531252	296.5835571289062	-446.9665832519533	971.167175292969	363.8155212402344	-545.8117065429689	873.680847167969	41.75936508178705	-653.9224243164064	483.9905700683595	91.0570983886718	-645.7485961914064	475.5865173339845	226.7976684570312	-700.5734252929689	437.1897277832032	92.11688232421868	-642.0067138671876	391.0346069335939	140.0874786376953	-908.2813720703127	123.6074905395508	138.838409423828	-869.4212646484377	144.6936187744141	233.5276184082031	-970.883239746094	111.7342605590821	199.368911743164	-805.229187011719	18.91364860534668	246.5592651367187	-785.825622558594	34.62176513671876	188.4604187011718	-838.3374633789065	19.57876968383789	128.5301055908202	-497.3762207031252	869.7531738281252	427.0314636230469	-383.2564392089845	475.2562255859376	352.9172058105469	-361.4121093750001	493.271942138672	225.6488342285156	-384.8077697753908	420.6441650390626	359.5465393066406	-315.9297485351564	435.1900024414064	309.6384582519531	-292.5182189941407	57.1244468688965	342.6289367675781	-265.1610107421876	95.58094024658205	249.0730133056641	-321.795623779297	17.20751190185547	275.9897155761719	-124.8280868530274	57.89093017578126	258.5698852539063	-133.5836029052735	68.0359573364258	314.5493164062501	-166.2654418945313	38.12137985229493	365.5552673339844	-592.6306762695314	1510.082397460938	247.2942352294922	-691.4282836914064	1267.633911132813	231.6027374267578	-418.6021728515627	1232.164306640625	251.7548522949219	-466.5410156250002	1414.363037109375	262.2135314941406	-700.9998779296876	1302.657470703125	121.6705703735351	-659.7683105468751	1446.395874023438	129.5664825439453	-612.8107299804689	1448.47802734375	70.99155426025385	-562.7993774414064	1446.633544921875	48.94764709472651	-528.5563964843751	1125.650634765625	-75.98319244384774	-583.7974853515626	1094.07470703125	-0.1247361078859091	-570.4797973632814	1082.855590820313	-60.69541168212899	-332.4548645019532	965.5144042968752	14.18323802947994	-371.6689147949219	922.9249267578127	-53.92411804199224	-255.4725799560547	922.9163818359377	12.59531879425046	-319.6938476562501	855.423522949219	-48.31447219848638	-723.5909423828126	1287.394287109375	337.3380432128906	-670.8924560546876	1430.446655273438	360.2039184570312	-641.3724365234376	1417.180297851563	430.4669189453126	-597.4625854492189	1414.556762695313	457.9853820800782	-654.5576171875002	1085.265625	538.9928588867188	-659.1366577148439	1068.46533203125	434.8686828613282	-689.4979248046877	1064.00146484375	498.8424987792969	-547.900085449219	836.855895996094	507.5963439941407	-623.8293457031252	836.3654785156252	562.3175048828125	-518.2772216796877	746.5802612304689	535.144775390625	-631.038513183594	740.9146728515626	561.2416381835938	
60	0.59	-427.8343200683595	964.5684814453127	110.2530212402343	-633.0042724609376	988.886901855469	195.383560180664	-634.7321777343751	983.0461425781252	297.5401611328125	-431.2353820800783	972.9488525390627	365.2384643554688	-528.3798828125001	873.3181152343752	43.39591598510737	-631.3411865234376	482.3655395507814	86.56235504150385	-621.9249877929689	472.0404357910157	221.8570709228515	-679.7503662109376	436.6301879882814	87.78827667236321	-621.7232666015626	388.451873779297	134.4530487060546	-898.6691894531252	131.9922180175782	137.0165405273437	-857.8892822265627	150.5112609863282	231.1545410156249	-960.582946777344	124.9351425170899	198.3421630859374	-805.6448974609377	20.45542526245118	246.8283386230468	-785.7691650390627	34.9876823425293	188.8265228271484	-836.7158813476565	22.41745758056641	128.5166015624999	-480.9989318847658	872.3079223632815	428.6770324707032	-368.4007263183595	476.6170043945314	354.4868774414062	-346.9898071289063	494.4614562988282	227.4464416503907	-370.9788818359376	421.6352539062501	361.0839538574219	-302.7516479492189	434.872039794922	310.5773010253906	-289.2348632812501	56.16345596313478	342.560791015625	-261.6783447265626	93.4498977661133	248.5289459228516	-321.3419494628907	17.82877159118653	276.3674011230469	-122.3580017089844	50.33529281616212	256.1190185546876	-129.3779602050782	60.84641647338869	312.5876770019532	-163.356185913086	32.3544044494629	364.2248229980469	-577.5679931640626	1510.924194335938	249.6298828125	-675.9870605468751	1268.357055664063	232.8968505859375	-403.0919189453127	1233.358642578125	253.5010223388672	-451.3093566894533	1415.439575195313	264.273193359375	-685.7557373046876	1303.603881835938	123.4494476318359	-644.7059326171876	1447.521118164063	131.7339782714843	-597.7866821289064	1449.8359375	73.16059875488276	-547.8516845703126	1448.083129882813	51.00251007080073	-516.4608764648439	1126.507690429688	-73.62723541259773	-571.0179443359376	1095.924438476563	2.94179129600518	-558.4813842773439	1084.545288085938	-57.89012908935555	-321.7935180664063	963.1821899414065	14.95207023620602	-362.2762451171876	921.3523559570315	-52.92340469360357	-245.5374908447266	919.2629394531252	12.71212005615232	-311.4318542480469	853.0864257812502	-47.8647842407227	-708.1018066406251	1287.957397460938	339.1328430175781	-655.7059326171876	1430.81201171875	362.2860717773438	-626.1354980468751	1417.387817382813	432.5211486816407	-582.2288818359376	1414.724731445313	459.9998779296876	-637.5251464843752	1084.943969726563	540.1919555664062	-642.3800048828126	1068.521728515625	435.9930419921876	-672.494079589844	1063.789794921875	500.1242675781251	-530.201354980469	836.9412841796877	507.8658142089844	-606.0393066406252	836.0948486328127	562.7500610351562	-500.1539001464845	746.7313232421876	535.0416870117188	-612.9910888671877	740.6062011718751	561.4168701171875	
61	0.6	-412.0361938476564	964.8470458984377	112.5265350341797	-617.3229980468751	989.3005371093752	195.9163360595703	-619.2350463867189	984.6567993164065	298.5144958496094	-415.6701049804689	974.917663574219	366.6293334960938	-510.9797973632814	872.8574218750002	45.10289764404291	-607.5000610351564	480.5458068847657	82.11730957031244	-596.4301757812501	468.1057434082032	216.8796234130859	-657.4940795898439	435.9986572265626	83.46430206298821	-600.0402832031251	385.810760498047	128.7812499999999	-887.2698974609377	141.0447082519532	135.5812072753905	-844.4600830078127	156.5676422119141	229.0686340332031	-948.1318359375002	138.7821960449219	197.8869323730468	-805.0317993164065	22.69880867004395	246.66650390625	-784.7250976562502	35.86767578125001	188.7792968749999	-833.972595214844	26.59840774536134	128.259552001953	-464.8834838867189	875.0777587890627	430.3662109375001	-353.9285583496095	478.0989074707032	356.0835266113281	-332.8723449707032	495.7656860351564	229.2996978759766	-357.5555725097657	422.7817382812501	362.6248779296875	-289.980926513672	434.6526184082032	311.6361389160156	-286.6283264160157	55.4818458557129	342.5174255371094	-258.7366638183595	91.6720428466797	248.083969116211	-321.1985168457032	18.48909378051758	276.7735900878906	-120.4331054687501	43.41794204711915	254.2892761230469	-125.8045806884766	54.3878631591797	311.1901245117188	-161.2227478027345	27.3031120300293	363.4774780273438	-562.4824829101564	1511.985107421875	251.9586944580078	-660.6203613281251	1269.3583984375	234.172378540039	-387.6714172363283	1234.680419921875	255.1878814697266	-436.073944091797	1416.681884765625	266.3009338378906	-670.5535888671876	1304.859741210938	125.1053009033203	-629.6018066406251	1448.927978515625	133.8680572509765	-582.7020874023439	1451.477172851563	75.29877471923822	-532.8215942382814	1449.797607421875	53.04730987548823	-504.7848205566407	1127.51513671875	-71.23451995849616	-558.3935546875001	1098.05712890625	6.197628021240168	-546.7393798828126	1086.525268554688	-54.91864776611336	-311.6447143554688	960.533874511719	15.59130764007565	-353.6439819335938	919.5730590820315	-51.92877197265631	-236.2500152587891	915.0845336914065	12.54755306243894	-304.1788330078126	850.4384765625002	-47.480396270752	-692.6128540039064	1288.80419921875	341.0041809082031	-640.4687500000001	1431.401123046875	364.3964233398438	-610.8208618164064	1417.804443359375	434.5923461914063	-566.9111328125001	1415.083129882813	462.0083923339844	-620.3005981445315	1084.808471679688	541.4404907226562	-625.5469970703126	1068.757080078125	437.1761779785157	-655.3144531250002	1063.769165039063	501.5075988769532	-512.2302856445315	837.2734985351565	508.1060180664063	-587.9095458984377	836.046813964844	563.2355346679688	-481.7156677246095	747.1300659179689	534.8482666015625	-594.570983886719	740.5219726562501	561.6696166992188	
62	0.61	-396.6070861816407	965.1466064453127	114.7238006591797	-601.9736938476564	989.788024902344	196.4478149414062	-603.9700927734376	986.4582519531252	299.4794921875	-400.3153686523439	977.004577636719	367.9794311523438	-493.7413940429689	872.3133544921877	46.83216857910151	-582.5337524414064	478.6189270019532	77.84503936767572	-569.4340209960939	463.9400329589845	212.0180816650391	-633.8842773437501	435.377655029297	79.26300811767572	-577.0454101562501	383.2260131835938	123.2693405151367	-873.9970703125002	150.6889953613282	134.5753021240234	-829.1132812500002	162.8398742675782	227.3231811523437	-933.4904785156252	153.0269622802735	198.0225372314453	-802.9122314453127	25.68610000610352	245.9129791259765	-782.2558593750002	37.37826538085938	188.1610107421874	-829.7556152343752	32.21368789672852	127.6778182983398	-449.1518554687502	877.9475708007815	432.0647277832032	-339.999481201172	479.6169738769532	357.6388854980469	-319.2578735351563	497.1046142578126	231.122802734375	-344.6663513183595	424.018280029297	364.1092529296875	-277.7358703613282	434.4940795898439	312.7220458984375	-284.5591125488282	55.10425186157228	342.4969787597656	-256.2661437988282	90.29159545898439	247.7242126464844	-321.1708984375001	19.14915466308594	277.2083435058594	-118.9296340942383	37.37651443481446	253.032699584961	-122.7676239013673	48.90010452270509	310.3031311035157	-159.6832275390626	23.16663360595703	363.2621765136719	-547.3942871093751	1513.234252929688	254.2537384033203	-645.3579711914064	1270.617431640625	235.4211730957031	-372.378143310547	1236.084716796875	256.775146484375	-420.8591918945314	1418.047973632813	268.2683410644531	-655.4261474609376	1306.3994140625	126.6209106445312	-614.4799804687501	1450.586547851563	135.9429931640624	-567.5801391601564	1453.36767578125	77.37844848632807	-517.7319946289064	1451.739135742188	55.05509567260737	-493.4888305664064	1128.66357421875	-68.84738159179695	-545.9124755859376	1100.42626953125	9.570115089416438	-535.2203369140626	1088.753051757813	-51.83477783203133	-302.0025939941407	957.6021728515627	16.10445404052731	-345.7469482421876	917.6132812500002	-50.9322013854981	-227.6222381591797	910.440856933594	12.1303548812866	-297.8988952636719	847.5280761718752	-47.13063812255864	-677.1563720703126	1289.90478515625	342.9307250976562	-625.1999511718751	1432.188720703125	366.5144958496094	-595.4456176757814	1418.40234375	436.6582946777344	-551.5248413085939	1415.602294921875	463.9869384765626	-602.920837402344	1084.838623046875	542.7362670898438	-608.6533203125001	1069.132934570313	438.4107055664063	-637.995056152344	1063.900512695313	502.9821472167969	-493.999237060547	837.8387451171877	508.3240966796876	-569.4517211914065	836.2008056640627	563.7785034179688	-462.9764404296877	747.7666015625001	534.5819091796876	-575.7781982421877	740.6429443359376	562.0088500976562	
